<svg xmlns="http://www.w3.org/2000/svg" viewBox="0 0 401.45 237.92"><defs><style>.cls-1{fill:#38c6de;}.cls-1,.cls-16,.cls-2{stroke:#38c6de;}.cls-1,.cls-10,.cls-16,.cls-2{stroke-miterlimit:10;}.cls-2,.cls-3{fill:none;}.cls-4{fill:#2d3077;}.cls-5{fill:#2c2e73;}.cls-6{fill:#2a2d70;}.cls-7{fill:#23255e;}.cls-8{fill:#30337f;}.cls-10,.cls-9{fill:#23255c;}.cls-10{stroke:#23255c;}.cls-11{fill:#252761;}.cls-12{fill:#262865;}.cls-13{fill:#272a68;}.cls-14{fill:#292b6c;}.cls-15{fill:#3b3f9d;}.cls-16,.cls-17{fill:#03022c;}</style></defs><g id="Capa_2" data-name="Capa 2"><g id="Capa_11" data-name="Capa 11"><circle class="cls-1" cx="22.49" cy="26.47" r="1.52"/><line class="cls-1" x1="21.91" y1="60.83" x2="22.41" y2="28.33"/><circle class="cls-1" cx="12.56" cy="16.46" r="2.41"/><polyline class="cls-2" points="12.49 19.13 12.82 90.8 0.5 102.82 0.5 207.2"/><line class="cls-1" x1="26.2" y1="72.56" x2="26.7" y2="40.07"/><circle class="cls-1" cx="26.78" cy="38.21" r="1.52"/><circle class="cls-1" cx="50.43" cy="10.37" r="1.5"/><polyline class="cls-2" points="50.13 12.04 50.27 27.16 44.99 29.7 44.99 51.73"/><line class="cls-1" x1="39.04" y1="62.82" x2="39.54" y2="30.33"/><circle class="cls-1" cx="39.62" cy="28.47" r="1.52"/><circle class="cls-1" cx="111.79" cy="21.02" r="1.55"/><line class="cls-1" x1="111.13" y1="51.82" x2="111.45" y2="22"/><circle class="cls-1" cx="106.5" cy="29.45" r="1.55"/><line class="cls-1" x1="105.93" y1="61.04" x2="106.25" y2="31.22"/><circle class="cls-1" cx="150.11" cy="47.81" r="1.55"/><line class="cls-1" x1="149.54" y1="79.4" x2="149.87" y2="49.58"/><circle class="cls-1" cx="78.57" cy="2.02" r="1.52"/><line class="cls-1" x1="77.99" y1="51.79" x2="78.49" y2="3.88"/><circle class="cls-1" cx="71.63" cy="8.87" r="2.41"/><polyline class="cls-2" points="71.56 11.54 71.89 83.22 59.57 95.24 59.57 199.61"/><circle class="cls-1" cx="84.69" cy="13.31" r="1.52"/><circle class="cls-1" cx="102.2" cy="4.31" r="1.5"/><polyline class="cls-2" points="101.9 5.97 102.04 21.1 96.76 23.64 96.76 45.67"/><line class="cls-1" x1="90.81" y1="50.47" x2="91.32" y2="5.87"/><circle class="cls-1" cx="91.4" cy="4.01" r="1.52"/><line class="cls-1" x1="84.04" y1="46.99" x2="84.55" y2="14.5"/><circle class="cls-1" cx="144.8" cy="31.89" r="1.55"/><line class="cls-1" x1="144.23" y1="63.48" x2="144.55" y2="33.66"/><path class="cls-3" d="M65.7,74.41l-.47.17Z"/><path class="cls-3" d="M64.86,74.73a4.68,4.68,0,0,0-.45.19A4.68,4.68,0,0,1,64.86,74.73Z"/><path class="cls-3" d="M67.5,73.86,67,74Z"/><path class="cls-3" d="M66.58,74.12l-.49.16Z"/><path class="cls-3" d="M58,79.68l-.24.32Z"/><path class="cls-3" d="M62.57,75.83a.57.57,0,0,0-.13.08A.57.57,0,0,1,62.57,75.83Z"/><path class="cls-3" d="M60.49,77.22l0,0Z"/><path class="cls-3" d="M57,81.14l-.2.31Z"/><path class="cls-3" d="M68.46,73.62l-.57.14Z"/><path class="cls-3" d="M25.22,55.51c.37-.21.75-.41,1.15-.59C26,55.1,25.59,55.3,25.22,55.51Z"/><path class="cls-3" d="M70.83,73.19l-1,.16Z"/><path class="cls-3" d="M63.72,75.23l.32-.15-.2.09Z"/><path class="cls-3" d="M69.49,73.41l-.65.13Z"/><path class="cls-3" d="M26.7,54.76l.36-.16Z"/><path class="cls-3" d="M54.44,87.64a3,3,0,0,0-.06.32A3,3,0,0,1,54.44,87.64Z"/><path class="cls-3" d="M56.32,82.25c0-.1.11-.2.17-.3l-.13.21A.36.36,0,0,1,56.32,82.25Z"/><path class="cls-3" d="M53.88,92.25c0,.13,0,.26,0,.39C53.87,92.51,53.88,92.38,53.88,92.25Z"/><path class="cls-3" d="M55.27,84.66a2.83,2.83,0,0,1,.11-.31l-.06.16A.88.88,0,0,0,55.27,84.66Z"/><path class="cls-3" d="M57.27,80.67l.22-.31-.1.14Z"/><path class="cls-3" d="M59.5,78.07l.27-.25-.06.06Z"/><path class="cls-3" d="M58.88,78.68l.27-.27Z"/><path class="cls-3" d="M58.3,79.33l.26-.3-.1.1Z"/><path class="cls-3" d="M54.24,88.71l-.06.41Z"/><path class="cls-3" d="M54.71,86.46c0,.05,0,.1,0,.15S54.7,86.51,54.71,86.46Z"/><path class="cls-3" d="M55.05,85.28c0,.11-.07.22-.1.34C55,85.5,55,85.39,55.05,85.28Z"/><path class="cls-3" d="M61.25,76.66l.17-.11-.11.06Z"/><path class="cls-3" d="M54.08,89.83c0,.15,0,.29,0,.44C54.05,90.12,54.06,90,54.08,89.83Z"/><path class="cls-3" d="M54,91l0,.44Z"/><path class="cls-3" d="M55.83,83.25c0,.07,0,.13-.08.19S55.8,83.32,55.83,83.25Z"/><path class="cls-3" d="M150.37,64a.2.2,0,0,0,.08,0h0l-.22-.11Z"/><path class="cls-3" d="M145.76,62.93h0Z"/><path class="cls-3" d="M145.53,62.93h0Z"/><path class="cls-3" d="M112.13,43.32l.43.18Z"/><path class="cls-3" d="M111.25,43l.46.14Z"/><path class="cls-3" d="M109.43,42.69l.2,0Z"/><path class="cls-3" d="M110.49,42.85l.18,0Z"/><path class="cls-3" d="M146.24,63l.3,0Z"/><path class="cls-3" d="M144,63h0Z"/><path class="cls-3" d="M148.9,63.44l-.17-.06Z"/><path class="cls-3" d="M149.67,63.71h0Z"/><path class="cls-3" d="M143.23,63l.27,0h0Z"/><path class="cls-3" d="M146.86,63l.17,0H147Z"/><path class="cls-3" d="M144.75,62.93h0Z"/><path class="cls-3" d="M144.82,62.93h0Z"/><path class="cls-3" d="M31.12,53.31l.37-.09Z"/><path class="cls-3" d="M147,63H147l.19,0Z"/><path class="cls-3" d="M32.15,53.09l.32-.06Z"/><path class="cls-3" d="M149.25,63.55l.15.06Z"/><path class="cls-3" d="M150.14,63.92l0,0,.08,0Z"/><path class="cls-3" d="M27.51,54.41l.37-.14Z"/><path class="cls-3" d="M29.23,53.8l.4-.12Z"/><path class="cls-3" d="M28.36,54.09l.38-.13Z"/><path class="cls-3" d="M30.15,53.54l.39-.1Z"/><path class="cls-3" d="M148.41,63.29l-.19,0,.24.06Z"/><path class="cls-3" d="M108.44,42.62h0Z"/><path class="cls-3" d="M147.59,63.12l.21,0h0Z"/><path class="cls-3" d="M107.32,42.62h0Z"/><path class="cls-3" d="M106.15,42.69l.28,0Z"/><path class="cls-3" d="M147.8,63.16l.13,0-.09,0Z"/><path class="cls-3" d="M142.6,129.89l-.23,0h0Z"/><path class="cls-3" d="M16.61,70.68c0-.24.05-.49.07-.73C16.66,70.19,16.63,70.44,16.61,70.68Z"/><path class="cls-3" d="M143.25,130,143,130l.25.05Z"/><path class="cls-3" d="M141.15,129.77h0Z"/><path class="cls-3" d="M17.09,67.32c.07-.35.15-.69.23-1C17.24,66.63,17.16,67,17.09,67.32Z"/><path class="cls-3" d="M16.89,68.4c0-.26.09-.51.14-.76C17,67.89,16.93,68.14,16.89,68.4Z"/><path class="cls-3" d="M16.73,69.51c0-.24.06-.47.1-.71C16.79,69,16.76,69.27,16.73,69.51Z"/><path class="cls-3" d="M140.43,129.76h0Z"/><path class="cls-3" d="M142.42,129.87h0l-.14,0Z"/><path class="cls-3" d="M18,64c.12-.31.24-.61.37-.9C18.27,63.42,18.15,63.72,18,64Z"/><path class="cls-3" d="M143.5,63l.24,0-.24,0Z"/><path class="cls-3" d="M141.31,129.77h0Z"/><path class="cls-3" d="M17.36,66.14c.08-.28.16-.57.24-.84C17.52,65.57,17.44,65.86,17.36,66.14Z"/><path class="cls-3" d="M17.71,65c.06-.21.13-.43.21-.63C17.84,64.54,17.77,64.76,17.71,65Z"/><path class="cls-3" d="M140.23,129.76h0Z"/><path class="cls-3" d="M145.6,130.77l.22.12.09,0-.31-.16Z"/><path class="cls-3" d="M103.8,109.45h0Z"/><path class="cls-3" d="M102.64,109.45h0Z"/><path class="cls-3" d="M104.81,109.52l.21,0Z"/><path class="cls-3" d="M101.45,109.52l.29,0Z"/><path class="cls-3" d="M105.9,109.68l.18,0Z"/><path class="cls-3" d="M107.57,110.17c.15,0,.3.12.44.18C107.87,110.29,107.72,110.22,107.57,110.17Z"/><path class="cls-3" d="M16.49,73.55q0-.61,0-1.23Q16.49,72.94,16.49,73.55Z"/><path class="cls-3" d="M106.68,109.87l.47.14Z"/><path class="cls-3" d="M16.53,71.93c0-.27,0-.54,0-.81C16.56,71.39,16.55,71.66,16.53,71.93Z"/><path class="cls-3" d="M143.84,130.13l-.2,0,.24,0Z"/><path class="cls-3" d="M22.42,57.51c.23-.2.45-.4.69-.58C22.87,57.11,22.65,57.31,22.42,57.51Z"/><path class="cls-3" d="M144.67,130.39l.17.06Z"/><path class="cls-3" d="M144.15,130.22l.18.05Z"/><path class="cls-3" d="M141.6,129.79l.31,0Z"/><path class="cls-3" d="M24.07,56.23c.33-.23.67-.44,1-.64C24.74,55.79,24.4,56,24.07,56.23Z"/><path class="cls-3" d="M145.09,130.54l.07,0Z"/><path class="cls-3" d="M138.52,129.87l.27,0Z"/><path class="cls-3" d="M138.8,129.84l.24,0Z"/><path class="cls-3" d="M143.32,130h0Z"/><path class="cls-3" d="M139.33,129.8l.31,0Z"/><path class="cls-3" d="M23.14,56.9c.25-.19.5-.38.76-.56C23.64,56.52,23.39,56.71,23.14,56.9Z"/><path class="cls-3" d="M19.14,61.63c.09-.16.18-.33.28-.49C19.32,61.3,19.23,61.47,19.14,61.63Z"/><path class="cls-3" d="M18.48,62.93c.16-.34.32-.67.49-1C18.8,62.26,18.64,62.59,18.48,62.93Z"/><path class="cls-3" d="M21.8,58.09l.35-.33Z"/><path class="cls-3" d="M19.62,60.82l.3-.46Z"/><path class="cls-3" d="M20.14,60.05l.27-.37Z"/><path class="cls-3" d="M21.21,58.71l.32-.34Z"/><path class="cls-3" d="M20.66,59.36,21,59Z"/><path class="cls-4" d="M143.23,63l.27,0,.24,0,.28,0h.31l.42,0H146l.28,0,.3,0,.32,0,.12,0,.24,0,.37.06.25,0,.09,0,.29.07.19,0L111.09,43l-.42-.1-.18,0c-.28-.06-.56-.1-.86-.14l-.2,0q-.36,0-.75-.06h-.24c-.31,0-.63,0-1,0h-.16c-.29,0-.59,0-.89.05l-.28,0-1.09.12,37.35,20.32Z"/><path class="cls-5" d="M148.46,63.31l.27.07.17.06.35.11.15.06a2.34,2.34,0,0,1,.24.09h0l.42.19,0,0L113,43.7l-.41-.2-.43-.18-.42-.15-.46-.14-.16,0,37.32,20.3Z"/><path class="cls-6" d="M150.17,63.94l.06,0,.22.11L113.1,43.76,113,43.7l37.17,20.22Z"/><path class="cls-7" d="M59.19,230.5l-.19-.13c-.14-.1-.27-.21-.4-.32l-.18-.14c-.19-.16-.37-.32-.55-.5q-4.27-4.14-4.26-13.17L16.26,195.92q0,9,4.26,13.18a11.12,11.12,0,0,0,2.37,1.74l37.35,20.31-.38-.22c-.08-.05-.17-.09-.25-.15Z"/><polygon class="cls-8" points="142.41 63.13 105.06 42.81 33.48 52.87 70.83 73.19 142.41 63.13"/><polygon class="cls-9" points="53.79 119.58 48.84 116.89 53.8 116.19 53.84 93.87 16.49 73.55 16.26 198.03 53.61 218.35 53.79 119.58"/><polygon class="cls-10" points="53.79 119.58 53.8 116.19 48.84 116.89 53.79 119.58"/><path class="cls-7" d="M53.86,92.64c0-.13,0-.26,0-.39s0-.54,0-.81L54,91c0-.25,0-.49.07-.73s0-.29,0-.44.06-.47.1-.71l.06-.41c0-.25.09-.5.14-.75a3,3,0,0,1,.06-.32c.07-.35.15-.69.23-1,0,0,0-.1,0-.15.08-.29.15-.57.24-.84s.07-.23.1-.34.14-.42.22-.62a.88.88,0,0,1,0-.15L18,64.19s0,.1,0,.15c-.08.2-.15.42-.21.63s-.08.22-.11.33c-.08.27-.16.56-.24.84,0,0,0,.1,0,.15-.08.34-.16.68-.23,1l-.06.32c-.05.25-.1.5-.14.76l-.06.4c0,.24-.07.47-.1.71s0,.3-.05.44-.05.49-.07.73l0,.44c0,.27,0,.54,0,.81s0,.26,0,.39q0,.62,0,1.23L53.84,93.87C53.84,93.45,53.85,93,53.86,92.64Z"/><path class="cls-11" d="M55.38,84.35c.12-.31.24-.61.37-.91,0-.06,0-.12.08-.19.15-.34.32-.68.49-1a.36.36,0,0,0,0-.09L19,61.85a.56.56,0,0,0-.05.08c-.17.33-.33.66-.49,1l-.08.2c-.13.29-.25.59-.37.9l-.06.16L55.32,84.51Z"/><path class="cls-12" d="M56.49,82l.28-.5.2-.31c.09-.16.2-.31.3-.47l.12-.17L20,60.18l-.12.18-.3.46-.2.32c-.1.16-.19.33-.28.49l-.12.22L56.36,82.16Z"/><path class="cls-13" d="M57.49,80.36l.27-.36.24-.32.3-.35.16-.2L21.12,58.82,21,59l-.29.35-.25.32-.27.37-.1.13L57.39,80.5Z"/><path class="cls-14" d="M58.56,79c.1-.12.21-.23.32-.35l.27-.27c.11-.12.23-.23.35-.34l.21-.19L22.36,57.56l-.21.2-.35.33-.27.28-.32.34-.09.11L58.46,79.13Z"/><path class="cls-6" d="M59.77,77.82c.22-.19.45-.39.68-.57l0,0c.25-.2.5-.38.76-.56l.06,0L24,56.3l-.06,0c-.26.18-.51.37-.76.56l0,0c-.24.18-.46.38-.69.58l-.06.05L59.71,77.88Z"/><path class="cls-5" d="M61.42,76.55c.33-.23.67-.44,1-.64a.57.57,0,0,1,.13-.08c.37-.21.75-.41,1.15-.6l.12-.06L26.49,54.85l-.12.07c-.4.18-.78.38-1.15.59l-.13.08c-.35.2-.69.41-1,.64L24,56.3,61.31,76.61Z"/><path class="cls-4" d="M64,75.08l.37-.16a4.68,4.68,0,0,1,.45-.19l.37-.15.47-.17.39-.13.49-.16L67,74l.52-.14.39-.1.57-.14.38-.08.65-.13.33-.06,1-.16L33.48,52.87l-1,.16-.32.06-.66.13-.37.09-.58.13-.39.1-.52.14-.4.12-.49.16-.38.13-.48.18-.37.14-.45.19-.36.16-.21.09L63.84,75.17Z"/><path class="cls-15" d="M142.41,63.13,143.5,63l-.27,0Z"/><path class="cls-15" d="M143.24,130,143,130l-.39-.06-.18,0A7.37,7.37,0,0,1,143.24,130Z"/><path class="cls-15" d="M142.16,129.84l-.25,0-.31,0h-.2C141.66,129.79,141.91,129.81,142.16,129.84Z"/><path class="cls-15" d="M141.12,129.76h0Z"/><path class="cls-15" d="M140,129.77h-.35l-.31,0-.24,0C139.4,129.79,139.7,129.78,140,129.77Z"/><path class="cls-15" d="M148.22,63.25l-.2,0,.58.15-.14,0Z"/><path class="cls-15" d="M149.25,63.55l-.19-.06.42.15-.08,0Z"/><path class="cls-15" d="M150.17,63.94l-.08,0-.19-.08.47.22-.14-.07Z"/><path class="cls-15" d="M144,130.19l-.15-.05-.24,0-.21-.05Z"/><path class="cls-15" d="M144.92,130.48l-.08,0-.17-.06-.17-.06Z"/><path class="cls-15" d="M147.22,63.06,147,63l.77.13-.21,0Z"/><path class="cls-15" d="M145.1,62.92h0Z"/><path class="cls-15" d="M145.36,130.67l.46.22-.22-.12Z"/><path class="cls-15" d="M144,63l-.24,0,.89,0-.34,0Z"/><path class="cls-16" d="M137.68,130c.38-.06.75-.1,1.12-.13h0l.24,0h.05c.31,0,.61,0,.9,0h1.41c.26,0,.51,0,.76.06h.07l.19,0a7.37,7.37,0,0,1,.82.13h.08l.11,0,.6.15.12,0,.18.05.17.06.42.15.17.06.07,0,.2.1.46.22q4.83,2.55,4.81,10.81,0,13.78-13,15.6l-51.49,7.24-.09,49.25q0,18.53-15.94,20.76-6.27.87-10.25-1.51l-.25-.15c-.15-.09-.28-.19-.42-.29l-.19-.12c-.14-.1-.27-.21-.4-.32l-.18-.14c-.19-.16-.37-.32-.55-.5q-4.27-4.14-4.26-13.17l.23-124.48c0-.42,0-.83,0-1.23,0-.13,0-.26,0-.39s0-.54,0-.81L54,91c0-.25,0-.49.07-.73s0-.29,0-.44.06-.47.1-.71l.06-.41c0-.25.09-.5.14-.75a3,3,0,0,1,.06-.32c.07-.35.15-.69.23-1,0,0,0-.1,0-.15.08-.29.15-.57.24-.84s.07-.23.1-.34.14-.42.22-.62a2.83,2.83,0,0,1,.11-.31c.12-.31.24-.61.37-.91,0-.06,0-.12.08-.19.15-.34.32-.68.49-1,0-.1.11-.2.17-.3l.28-.5.2-.31c.09-.16.2-.31.3-.47l.22-.31.27-.36.24-.32.3-.35.26-.3c.1-.12.21-.23.32-.35l.27-.27c.11-.12.23-.23.35-.34l.27-.25c.22-.19.45-.39.68-.57l0,0c.25-.2.5-.38.76-.56l.17-.11c.33-.23.67-.44,1-.64a.57.57,0,0,1,.13-.08c.37-.21.75-.41,1.15-.6l.32-.15.37-.16a4.68,4.68,0,0,1,.45-.19l.37-.15.47-.17.39-.13.49-.16L67,74l.52-.14.39-.1.57-.14.38-.08.65-.13.33-.06,1-.16,71.58-10.06L143.5,63l.24,0h0l.89,0H146q.38,0,.75.06h.08l.17,0,.77.13.13,0,.09,0,.58.15.13,0,.17.06.16.05.42.15.16.06h0l.23.11.47.22q4.8,2.53,4.78,10.85,0,13.78-12.79,15.58L86.27,98.35l0,13.28,0,19.3,0,6.27L137.68,130"/><path class="cls-15" d="M138.79,129.84l-.27,0c-.27,0-.55.06-.84.1.38-.06.75-.1,1.12-.13Z"/><path class="cls-15" d="M146.24,63H146q.38,0,.75.06l-.24,0Z"/><path class="cls-15" d="M142.6,129.89l.39.06Z"/><path class="cls-15" d="M139.33,129.8l-.29,0h.05Z"/><path class="cls-15" d="M143.64,130.09l-.32-.08.11,0Z"/><polygon class="cls-15" points="138.8 129.84 138.79 129.84 138.8 129.84 138.8 129.84"/><path class="cls-15" d="M140.43,129.76h0Z"/><path class="cls-15" d="M137.68,130c.29,0,.57-.08.84-.1C138.25,129.89,138,129.93,137.68,130Z"/><path class="cls-15" d="M140.08,129.76l-.44,0h.44Z"/><path class="cls-15" d="M141.6,129.79l-.29,0h.29Z"/><path class="cls-15" d="M142.23,129.84l-.32,0,.25,0Z"/><path class="cls-15" d="M144.15,130.22l-.27-.08.15.05Z"/><path class="cls-15" d="M145.6,130.77l-.44-.2.2.1Z"/><path class="cls-15" d="M145.09,130.54l-.25-.09.08,0Z"/><path class="cls-15" d="M144.67,130.39l-.34-.12.17.06Z"/><path class="cls-15" d="M146,62.94h.28Z"/><path class="cls-15" d="M147.93,63.18l.09,0,.2,0Z"/><path class="cls-15" d="M146.78,63h.08l-.32,0Z"/><path class="cls-15" d="M147.22,63.06l.37.06Z"/><path class="cls-15" d="M143.74,63h0l.24,0Z"/><path class="cls-15" d="M142.41,63.13l.82-.1Z"/><path class="cls-15" d="M144.67,62.93h.08l-.42,0Z"/><path class="cls-15" d="M145.1,62.92h0Z"/><path class="cls-15" d="M148.9,63.44l.16.05.19.06Z"/><path class="cls-15" d="M149.67,63.71l.23.11.19.08Z"/><path class="cls-15" d="M148.6,63.35l.13,0-.27-.07Z"/><path class="cls-15" d="M149.48,63.64l.16.06a2.34,2.34,0,0,0-.24-.09Z"/><path class="cls-15" d="M150.17,63.94l.06,0Z"/><path class="cls-16" d="M86.43,111.58c6.78-1,12-1.71,14.65-2.08a14,14,0,0,1,2.18-.13,9.53,9.53,0,0,1,3.1.44,7.67,7.67,0,0,1,1.77.88c1.57,1,15,8.33,35,19.05l-1.52,0-2.51,0-4.6.6L86.43,137.2Z"/><path class="cls-8" d="M203.41,235.29v2.41H189.34V218.31H203v2.41H192.11v6h9.72V229h-9.72v6.26Z"/><path class="cls-8" d="M224.46,218.31,216,237.7h-2.75l-8.53-19.39h3l7,15.93,7-15.93Z"/><path class="cls-8" d="M230.19,236.63a9.52,9.52,0,0,1-3.7-3.56,10.24,10.24,0,0,1,0-10.13,9.52,9.52,0,0,1,3.7-3.56,11.43,11.43,0,0,1,10.55,0,9.52,9.52,0,0,1,3.69,3.54,10.45,10.45,0,0,1,0,10.17,9.52,9.52,0,0,1-3.69,3.54,11.43,11.43,0,0,1-10.55,0Zm9.13-2.14a7.11,7.11,0,0,0,2.68-2.68,7.81,7.81,0,0,0,0-7.61,7.11,7.11,0,0,0-2.68-2.68,7.71,7.71,0,0,0-3.84-1,7.82,7.82,0,0,0-3.86,1,7.07,7.07,0,0,0-2.72,2.68,7.88,7.88,0,0,0,0,7.61,7.07,7.07,0,0,0,2.72,2.68,7.81,7.81,0,0,0,3.86,1A7.71,7.71,0,0,0,239.32,234.49Z"/><path class="cls-8" d="M250,218.31h2.77v17h10.5v2.41H250Z"/><path class="cls-8" d="M268.11,235.7a8.74,8.74,0,0,1-2.16-6.37v-11h2.76v10.91c0,4.16,1.82,6.23,5.46,6.23a5.26,5.26,0,0,0,4.07-1.53,6.77,6.77,0,0,0,1.41-4.7V218.31h2.69v11q0,4.18-2.16,6.39a9.35,9.35,0,0,1-12.07,0Z"/><path class="cls-8" d="M291.51,220.72h-6.65v-2.41h16v2.41h-6.65v17h-2.74Z"/><path class="cls-8" d="M303.92,218.31h2.77V237.7h-2.77Z"/><path class="cls-8" d="M316,236.63a9.43,9.43,0,0,1-3.69-3.56,10.18,10.18,0,0,1,0-10.13,9.43,9.43,0,0,1,3.69-3.56,11.43,11.43,0,0,1,10.55,0,9.52,9.52,0,0,1,3.69,3.54,10.39,10.39,0,0,1,0,10.17,9.52,9.52,0,0,1-3.69,3.54,11.43,11.43,0,0,1-10.55,0Zm9.13-2.14a7.11,7.11,0,0,0,2.68-2.68,7.81,7.81,0,0,0,0-7.61,7.11,7.11,0,0,0-2.68-2.68,7.71,7.71,0,0,0-3.84-1,7.82,7.82,0,0,0-3.86,1,7.14,7.14,0,0,0-2.72,2.68,7.88,7.88,0,0,0,0,7.61,7.14,7.14,0,0,0,2.72,2.68,7.81,7.81,0,0,0,3.86,1A7.71,7.71,0,0,0,325.09,234.49Z"/><path class="cls-8" d="M352.44,218.31V237.7h-2.27l-11.63-14.46V237.7h-2.77V218.31H338l11.63,14.46V218.31Z"/><path class="cls-17" d="M128.49,203.76a4.28,4.28,0,0,1-3.24-1.16,4.62,4.62,0,0,1-1.14-3.38V168.7q0-4.48,4.49-4.48h18.94c2.25,0,3.38,1.1,3.38,3.32s-1.13,3.38-3.38,3.38H132.7v9.53h13.62c2.29,0,3.44,1.1,3.44,3.32s-1.15,3.38-3.44,3.38H132.7v12.07C132.7,202.25,131.29,203.76,128.49,203.76Z"/><path class="cls-17" d="M173.24,203.88a19.81,19.81,0,0,1-10.11-2.52,17.47,17.47,0,0,1-6.75-7,24.54,24.54,0,0,1,0-21.21,17.29,17.29,0,0,1,6.73-7,21.93,21.93,0,0,1,20.3,0,17.29,17.29,0,0,1,6.76,7,22.14,22.14,0,0,1,2.41,10.55,22.41,22.41,0,0,1-2.41,10.63,17.45,17.45,0,0,1-6.76,7.07A19.93,19.93,0,0,1,173.24,203.88Zm0-7.32a9.24,9.24,0,0,0,7.62-3.4q2.74-3.41,2.74-9.45t-2.71-9.44a10.31,10.31,0,0,0-15.21,0q-2.73,3.34-2.74,9.44t2.74,9.45A9.18,9.18,0,0,0,173.24,196.56Z"/><path class="cls-17" d="M203.54,203.76a4.21,4.21,0,0,1-3.21-1.16,4.53,4.53,0,0,1-1.11-3.27V168.59c0-2.92,1.46-4.37,4.38-4.37h13.46q6.54,0,10.08,3.15t3.54,8.81a11.51,11.51,0,0,1-2.24,7.28,11.23,11.23,0,0,1-6.4,4,8.39,8.39,0,0,1,4.82,4.27l3.44,6.37a4.43,4.43,0,0,1,.44,3.9c-.48,1.2-1.64,1.8-3.49,1.8a5.25,5.25,0,0,1-3-.77,6.24,6.24,0,0,1-2-2.38L217,190.8a4.58,4.58,0,0,0-2-2.1,6.88,6.88,0,0,0-2.88-.56h-4.21v11.19a4.61,4.61,0,0,1-1.08,3.27A4.12,4.12,0,0,1,203.54,203.76Zm4.27-21.82h7.7q6.92,0,6.92-5.54t-6.92-5.48h-7.7Z"/><path class="cls-17" d="M250.29,203.76a4.21,4.21,0,0,1-3.21-1.16,4.53,4.53,0,0,1-1.11-3.27v-28h-9.8c-2.4,0-3.6-1.19-3.6-3.55s1.2-3.54,3.6-3.54h28.19q3.6,0,3.6,3.54c0,2.36-1.2,3.55-3.6,3.55h-9.8v28a4.61,4.61,0,0,1-1.08,3.27A4.12,4.12,0,0,1,250.29,203.76Z"/><path class="cls-17" d="M276,203.76a4.21,4.21,0,0,1-3.21-1.16,4.53,4.53,0,0,1-1.11-3.27V168.59c0-2.92,1.46-4.37,4.38-4.37h13.46q6.54,0,10.08,3.15t3.54,8.81a11.51,11.51,0,0,1-2.24,7.28,11.23,11.23,0,0,1-6.4,4,8.39,8.39,0,0,1,4.82,4.27l3.44,6.37a4.43,4.43,0,0,1,.44,3.9c-.48,1.2-1.64,1.8-3.49,1.8a5.27,5.27,0,0,1-3-.77,6.14,6.14,0,0,1-2-2.38l-5.32-9.81a4.58,4.58,0,0,0-2-2.1,6.88,6.88,0,0,0-2.88-.56h-4.21v11.19a4.61,4.61,0,0,1-1.08,3.27A4.12,4.12,0,0,1,276,203.76Zm4.27-21.82H288q6.92,0,6.92-5.54T288,170.92h-7.7Z"/><path class="cls-17" d="M310.56,203.76a3.65,3.65,0,0,1-3.33-1.55,3.82,3.82,0,0,1,.06-3.82l14.18-31.07a6.67,6.67,0,0,1,2.11-2.74,5.05,5.05,0,0,1,5.64,0,6.27,6.27,0,0,1,2,2.74l14.3,31.07a3.93,3.93,0,0,1,.08,3.85,3.42,3.42,0,0,1-3.13,1.52,4.31,4.31,0,0,1-2.91-.88,7.3,7.3,0,0,1-1.8-2.77l-2.33-5.32H317.26L315,200.11a8.29,8.29,0,0,1-1.77,2.8A3.83,3.83,0,0,1,310.56,203.76Zm15.73-30.4-6.15,14.73h12.52l-6.26-14.73Z"/><path class="cls-17" d="M355.48,203.76a4.21,4.21,0,0,1-3.21-1.16,4.53,4.53,0,0,1-1.11-3.27V168.15q0-4.43,4.32-4.43c2.84,0,4.27,1.48,4.27,4.43v31.18C359.75,202.29,358.32,203.76,355.48,203.76Z"/><path class="cls-17" d="M371.6,203.76q-4,0-4-4.15V168a4.55,4.55,0,0,1,1-3.21,3.57,3.57,0,0,1,2.75-1.11,3.89,3.89,0,0,1,2.27.58,9.7,9.7,0,0,1,1.88,1.91l18,22.88V167.82c0-2.74,1.33-4.1,4-4.1s4,1.36,4,4.1v32a4.25,4.25,0,0,1-.94,2.9,3.17,3.17,0,0,1-2.55,1.08,4.43,4.43,0,0,1-2.46-.6,9.32,9.32,0,0,1-2-1.94l-17.94-22.88v21.27Q375.59,203.77,371.6,203.76Z"/></g></g></svg>